<svg width="24" height="24" viewBox="0 0 24 24" fill="none" xmlns="http://www.w3.org/2000/svg">
<g clip-path="url(#clip0_605_4521)">
<path d="M23.9955 12.0023C23.9955 13.4042 23.7558 14.7518 23.3081 16C21.662 20.6535 17.212 24 11.9977 24C6.78349 24 2.33804 20.6535 0.687394 16C0.239683 14.7473 0 13.4042 0 12.0023C0 10.6003 0.239683 9.25269 0.687394 8C2.33804 3.342 6.78349 0 11.9977 0C17.212 0 21.662 3.342 23.3081 8C23.7558 9.25269 23.9955 10.5958 23.9955 12.0023Z" fill="white"/>
<path d="M23.3081 8H0.687393C2.33804 3.342 6.78349 0 11.9977 0C17.212 0 21.662 3.342 23.3081 8Z" fill="#F8993A"/>
<path d="M23.3126 16C21.662 20.6535 17.212 24 11.9977 24C6.78349 24 2.33804 20.6535 0.687393 16H23.3126Z" fill="#1B8943"/>
<path d="M12.4228 12.3595L12.4319 12.3549L12.4364 12.3504L12.4409 12.3414L12.45 12.3323L12.4545 12.3278L12.459 12.3188L12.4635 12.3097L12.4681 12.3052L12.9022 12.6353L14.4172 13.3951L12.9972 12.468L12.4952 12.2554L12.4997 12.2464L12.5042 12.2374L12.5088 12.2283V12.2238L12.5133 12.2147L12.5178 12.2012L12.5223 12.1967V12.1876L12.5268 12.1786L12.5314 12.174L13.0379 12.3776L14.693 12.7212L13.0876 12.1921L12.5449 12.1153V12.1107L12.5495 12.0972V12.0926V12.0836L12.554 12.0746V12.061V12.0565V12.0474V12.0339L12.5585 12.0293L13.0967 12.0972L14.788 12.0022L13.0967 11.9027L12.5585 11.9705L12.554 11.9615V11.9525V11.9434V11.9389V11.9253L12.5495 11.9163V11.9072V11.9027L12.5449 11.8891V11.8846L13.0876 11.8077L14.693 11.2786L13.0379 11.6223L12.5314 11.8258L12.5268 11.8213L12.5223 11.8123V11.8032L12.5178 11.7987L12.5133 11.7851L12.5088 11.7761V11.767L12.5042 11.7625L12.4997 11.7535L12.4952 11.7444L12.9972 11.5319L14.4172 10.6048L12.9022 11.3645L12.4681 11.6947L12.4635 11.6902L12.459 11.6811L12.4545 11.6721L12.45 11.6675L12.4409 11.6585L12.4364 11.6495L12.4319 11.6449L12.4228 11.6404L12.4183 11.6314L12.4138 11.6268L12.8434 11.2922L13.974 10.0259L12.7077 11.152L12.3731 11.5861L12.3686 11.5816L12.3595 11.5726L12.3505 11.5681L12.346 11.5635L12.3369 11.5545L12.3279 11.55L12.3233 11.5454L12.3188 11.5409L12.3098 11.5364L12.3007 11.5319L12.6309 11.0977L13.3951 9.58275L12.4635 10.9982L12.251 11.5002H12.2465L12.2374 11.4957L12.2284 11.4912L12.2239 11.4867L12.2103 11.4821L12.2012 11.4776H12.1967L12.1877 11.4731L12.1786 11.4686H12.1696L12.3776 10.9621L12.7213 9.30237L12.1877 10.9123L12.1153 11.455L12.1063 11.4505H12.0972H12.0882L12.0837 11.446H12.0701H12.061L12.052 11.4414H12.043H12.0339H12.0294L12.0927 10.8987L11.9977 9.2074L11.9028 10.8987L11.9706 11.4414H11.9616H11.9525H11.9435L11.9344 11.446H11.9254H11.9163L11.9073 11.4505H11.8982H11.8892L11.8802 11.455L11.8078 10.9123L11.2742 9.30237L11.6224 10.9621L11.8259 11.4686H11.8168L11.8078 11.4731L11.8033 11.4776H11.7942L11.7852 11.4821L11.7761 11.4867L11.7671 11.4912L11.7626 11.4957L11.749 11.5002H11.7445L11.5319 10.9982L10.6003 9.58275L11.3646 11.0977L11.6947 11.5319L11.6902 11.5364L11.6812 11.5409L11.6721 11.5454L11.6676 11.55L11.6586 11.5545L11.6495 11.5635L11.645 11.5681L11.6359 11.5726L11.6314 11.5816L11.6224 11.5861L11.2877 11.152L10.026 10.0259L11.1521 11.2922L11.5817 11.6268L11.5772 11.6314L11.5726 11.6404L11.5681 11.6449L11.5636 11.6495L11.5545 11.6585L11.55 11.6675L11.5455 11.6721L11.541 11.6811L11.5319 11.6902V11.6947L11.0933 11.3645L9.57829 10.6048L10.9983 11.5319L11.5003 11.7444L11.4958 11.7535L11.4912 11.7625V11.767L11.4867 11.7761L11.4822 11.7851L11.4777 11.7987V11.8032L11.4731 11.8123L11.4686 11.8213V11.8258L10.9621 11.6223L9.30243 11.2786L10.9124 11.8077L11.4505 11.8846V11.8891V11.9027L11.446 11.9072V11.9163V11.9253L11.4415 11.9389V11.9434V11.9525V11.9615V11.9705L10.8988 11.9027L9.20746 12.0022L10.8988 12.0972L11.4415 12.0293V12.0339V12.0474V12.0565V12.061L11.446 12.0746V12.0836V12.0926L11.4505 12.0972V12.1107V12.1153L10.9124 12.1921L9.30243 12.7212L10.9621 12.3776L11.4686 12.174V12.1786L11.4731 12.1876L11.4777 12.1967V12.2012L11.4822 12.2147L11.4867 12.2238L11.4912 12.2283V12.2374L11.4958 12.2464L11.5003 12.2554L10.9983 12.468L9.57829 13.3951L11.0933 12.6353L11.5319 12.3052V12.3097L11.541 12.3188L11.5455 12.3278L11.55 12.3323L11.5545 12.3414L11.5636 12.3504L11.5681 12.3549L11.5726 12.3595L11.5772 12.3685L11.5817 12.373L11.1521 12.7077L10.026 13.9739L11.2877 12.8479L11.6224 12.4137L11.6314 12.4183L11.6359 12.4273L11.645 12.4318L11.6495 12.4363L11.6586 12.4409L11.6676 12.4499L11.6721 12.4544L11.6812 12.459L11.6902 12.4635L11.6947 12.468L11.3646 12.9021L10.6003 14.4171L11.5319 13.0016L11.7445 12.4997H11.749L11.7626 12.5042L11.7671 12.5087L11.7761 12.5132L11.7852 12.5177L11.7942 12.5223H11.8033L11.8078 12.5268H11.8168L11.8259 12.5313L11.6224 13.0378L11.2742 14.6975L11.8078 13.0876L11.8802 12.5449L11.8892 12.5494H11.8982H11.9073L11.9163 12.5539H11.9254H11.9344H11.9435H11.9525L11.9616 12.5584H11.9706L11.9028 13.1011L11.9977 14.7925L12.0927 13.1011L12.0294 12.5584H12.0339L12.043 12.5539H12.052H12.061H12.0701H12.0837L12.0882 12.5494H12.0972H12.1063L12.1153 12.5449L12.1877 13.0876L12.7213 14.6975L12.3776 13.0378L12.1696 12.5313L12.1786 12.5268H12.1877L12.1967 12.5223H12.2012L12.2103 12.5177L12.2239 12.5132L12.2284 12.5087L12.2374 12.5042L12.2465 12.4997H12.251L12.4635 13.0016L13.3951 14.4171L12.6309 12.9021L12.3007 12.468L12.3098 12.4635L12.3188 12.459L12.3233 12.4544L12.3279 12.4499L12.3369 12.4409L12.346 12.4363L12.3505 12.4318L12.3595 12.4273L12.3686 12.4183L12.3731 12.4137L12.7077 12.8479L13.974 13.9739L12.8434 12.7077L12.4138 12.373L12.4183 12.3685L12.4228 12.3595Z" fill="#2A2C7A"/>
<path d="M11.9977 8.78687C10.225 8.78687 8.78688 10.225 8.78688 11.9977C8.78688 13.7705 10.225 15.2086 11.9977 15.2086C13.7705 15.2086 15.2086 13.7705 15.2086 11.9977C15.2086 10.225 13.7705 8.78687 11.9977 8.78687ZM14.7428 12.5133C14.7473 12.5133 14.7564 12.5178 14.7609 12.5178C14.7337 12.667 14.693 12.8117 14.6433 12.9519C14.5755 12.9203 14.4986 12.9474 14.4624 13.0107C14.4217 13.0786 14.4488 13.1645 14.5167 13.2052C14.5212 13.2097 14.5302 13.2097 14.5348 13.2142C14.4669 13.3499 14.3946 13.481 14.3086 13.6031C14.2544 13.5579 14.173 13.5624 14.1187 13.6122C14.0644 13.6665 14.0644 13.7569 14.1187 13.8157C14.1232 13.8202 14.1278 13.8247 14.1368 13.8293C14.0373 13.9423 13.9288 14.0509 13.8112 14.1458C13.7705 14.087 13.6936 14.0689 13.6258 14.1051C13.5579 14.1458 13.5353 14.2317 13.576 14.2996C13.5806 14.3086 13.5805 14.3086 13.5851 14.3132C13.463 14.3991 13.3318 14.476 13.1962 14.5393C13.169 14.476 13.0967 14.4398 13.0288 14.4579C12.9519 14.476 12.9067 14.5574 12.9248 14.6297C12.9248 14.6388 12.9293 14.6433 12.9293 14.6478C12.7891 14.6976 12.6444 14.7383 12.4952 14.7654C12.4907 14.6976 12.4319 14.6388 12.355 14.6388C12.2781 14.6388 12.2103 14.7021 12.2103 14.7835C12.2103 14.788 12.2103 14.797 12.2148 14.8016C12.1424 14.8061 12.0701 14.8106 11.9977 14.8106C11.9209 14.8106 11.844 14.8061 11.7671 14.8016C11.7761 14.7292 11.7309 14.6614 11.6631 14.6433C11.5862 14.6207 11.5048 14.6659 11.4867 14.7428C11.4822 14.7473 11.4822 14.7563 11.4822 14.7609C11.333 14.7337 11.1882 14.6975 11.048 14.6433C11.0797 14.58 11.0526 14.4986 10.9893 14.4624C10.9214 14.4262 10.831 14.4488 10.7948 14.5167C10.7903 14.5212 10.7858 14.5302 10.7858 14.5347C10.6501 14.4714 10.5189 14.3946 10.3968 14.3086C10.4421 14.2544 10.4375 14.173 10.3878 14.1187C10.3335 14.0644 10.2431 14.0644 10.1843 14.1187C10.1798 14.1232 10.1752 14.1323 10.1707 14.1368C10.0577 14.0373 9.94912 13.9288 9.85415 13.8157C9.91294 13.775 9.93103 13.6936 9.89485 13.6303C9.85415 13.5624 9.76823 13.5398 9.70039 13.5805C9.69135 13.5805 9.6823 13.5851 9.67778 13.5896C9.59638 13.463 9.5195 13.3363 9.45619 13.1961C9.5195 13.1735 9.5602 13.1012 9.54211 13.0288C9.5195 12.9519 9.44262 12.9067 9.36574 12.9293C9.35669 12.9293 9.35217 12.9338 9.34765 12.9338C9.2979 12.7936 9.2572 12.6489 9.23007 12.4997C9.30243 12.4907 9.35669 12.4319 9.35669 12.3595C9.35669 12.2826 9.29338 12.2148 9.21198 12.2148C9.20746 12.2148 9.19841 12.2148 9.19389 12.2193C9.18937 12.147 9.18937 12.0746 9.18937 12.0022C9.18937 11.9208 9.19389 11.844 9.19841 11.7671C9.27077 11.7761 9.3386 11.7309 9.35669 11.6631C9.37478 11.5862 9.32956 11.5093 9.2572 11.4867C9.24816 11.4867 9.23911 11.4867 9.23459 11.4822C9.26173 11.3329 9.30243 11.1882 9.35217 11.048C9.42001 11.0797 9.49689 11.0526 9.53307 10.9892C9.57377 10.9214 9.55115 10.8355 9.4788 10.7948C9.47427 10.7903 9.46975 10.7903 9.46071 10.7857C9.52854 10.6501 9.6009 10.5189 9.68682 10.3968C9.74109 10.442 9.82249 10.4375 9.87676 10.3878C9.93103 10.3335 9.93103 10.2431 9.87676 10.1843C9.87224 10.1797 9.86772 10.1752 9.8632 10.1707C9.96269 10.0576 10.0667 9.9491 10.1843 9.85413C10.225 9.91293 10.3064 9.93101 10.3697 9.89484C10.4375 9.85414 10.4601 9.76821 10.4194 9.70038C10.4194 9.69133 10.4149 9.68681 10.4104 9.68229C10.5325 9.59636 10.6636 9.52401 10.7993 9.46069C10.8265 9.52401 10.8988 9.56018 10.9712 9.54209C11.048 9.51948 11.0933 9.4426 11.0707 9.36572C11.0707 9.35668 11.0661 9.35216 11.0616 9.34763C11.2018 9.29789 11.3465 9.25719 11.4958 9.23005C11.5093 9.30241 11.5681 9.3612 11.6405 9.3612C11.7173 9.3612 11.7852 9.29789 11.7852 9.21649C11.7852 9.21196 11.7852 9.20292 11.7807 9.1984C11.853 9.19387 11.9254 9.18935 11.9977 9.18935C12.0746 9.18935 12.156 9.19387 12.2329 9.1984C12.2193 9.27075 12.2646 9.33859 12.3369 9.35668C12.4138 9.37477 12.4907 9.32954 12.5133 9.25719C12.5133 9.24814 12.5178 9.24362 12.5178 9.23458C12.6625 9.26171 12.8118 9.30241 12.9519 9.35216C12.9203 9.41999 12.9429 9.49687 13.0062 9.53305C13.0786 9.57375 13.1645 9.55114 13.2052 9.4833C13.2052 9.47878 13.2097 9.46974 13.2142 9.46521C13.3499 9.52853 13.4811 9.60541 13.6032 9.69133C13.5579 9.7456 13.5625 9.827 13.6122 9.88127C13.6665 9.93554 13.7569 9.93554 13.8112 9.88127C13.8157 9.87675 13.8202 9.87222 13.8248 9.8677C13.9378 9.96719 14.0464 10.0712 14.1413 10.1888C14.0871 10.225 14.069 10.3064 14.1051 10.3697C14.1458 10.4375 14.2318 10.4601 14.2996 10.4194C14.3041 10.4149 14.3132 10.4104 14.3132 10.4059C14.3991 10.5325 14.476 10.6591 14.5393 10.7948C14.476 10.8264 14.4353 10.8988 14.4534 10.9712C14.476 11.048 14.5529 11.0933 14.6297 11.0706C14.6343 11.0706 14.6433 11.0661 14.6478 11.0661C14.6976 11.2063 14.7383 11.351 14.7654 11.5003C14.693 11.5093 14.6388 11.5681 14.6388 11.6405C14.6388 11.7173 14.7021 11.7806 14.7835 11.7806C14.7925 11.7806 14.7971 11.7806 14.8016 11.7806C14.8061 11.853 14.8106 11.9254 14.8106 11.9977C14.8106 12.0746 14.8061 12.1515 14.8016 12.2284C14.7292 12.2238 14.6614 12.2645 14.6388 12.3369C14.6207 12.4138 14.6659 12.4907 14.7428 12.5133Z" fill="#2A2C7A"/>
</g>
<defs>
<clipPath id="clip0_605_4521">
<rect width="23.9955" height="24" fill="white"/>
</clipPath>
</defs>
</svg>
