<?xml version="1.0" encoding="UTF-8" standalone="no"?>
<svg
   xmlns:dc="http://purl.org/dc/elements/1.1/"
   xmlns:cc="http://creativecommons.org/ns#"
   xmlns:rdf="http://www.w3.org/1999/02/22-rdf-syntax-ns#"
   xmlns:svg="http://www.w3.org/2000/svg"
   xmlns="http://www.w3.org/2000/svg"
   xmlns:sodipodi="http://sodipodi.sourceforge.net/DTD/sodipodi-0.dtd"
   xmlns:inkscape="http://www.inkscape.org/namespaces/inkscape"
   width="40"
   height="40"
   viewBox="0 0 55 55"
   fill="none"
   version="1.1"
   id="svg6"
   sodipodi:docname="pin.svg"
   inkscape:version="0.92.5 (2060ec1f9f, 2020-04-08)">
  <metadata
     id="metadata12">
    <rdf:RDF>
      <cc:Work
         rdf:about="">
        <dc:format>image/svg+xml</dc:format>
        <dc:type
           rdf:resource="http://purl.org/dc/dcmitype/StillImage" />
        <dc:title></dc:title>
      </cc:Work>
    </rdf:RDF>
  </metadata>
  <defs
     id="defs10" />
  <sodipodi:namedview
     pagecolor="#ffffff"
     bordercolor="#666666"
     borderopacity="1"
     objecttolerance="10"
     gridtolerance="10"
     guidetolerance="10"
     inkscape:pageopacity="0"
     inkscape:pageshadow="2"
     inkscape:window-width="1920"
     inkscape:window-height="1031"
     id="namedview8"
     showgrid="false"
     inkscape:zoom="5.9"
     inkscape:cx="20.338983"
     inkscape:cy="20"
     inkscape:window-x="0"
     inkscape:window-y="25"
     inkscape:window-maximized="1"
     inkscape:current-layer="svg6" />
  <g
     id="g824">
    <circle
       style="fill:#0083eb;fill-opacity:1"
       id="circle2"
       fill="#4A60AC"
       r="12"
       cy="22"
       cx="21"
       opacity="0.2" />
    <path
       style="fill:#0083eb;fill-opacity:1"
       id="path4"
       fill="#4A60AC"
       d="M30 16C24.4861 16 20 20.4861 20 26C20 27.6553 20.4138 29.2965 21.2006 30.7522L29.4532 45.6777C29.563 45.8767 29.7724 46 30 46C30.2277 46 30.437 45.8767 30.5469 45.6777L38.8025 30.7473C39.5862 29.2965 40 27.6552 40 26C40 20.4861 35.5139 16 30 16ZM30 31C27.2431 31 25 28.757 25 26C25 23.2431 27.2431 21 30 21C32.757 21 35 23.2431 35 26C35 28.757 32.757 31 30 31Z" />
  </g>
</svg>
