<svg width="24" height="24" viewBox="0 0 24 24" fill="none" xmlns="http://www.w3.org/2000/svg">
<path d="M12 24C18.6274 24 24 18.6274 24 12C24 5.37258 18.6274 0 12 0C5.37258 0 0 5.37258 0 12C0 18.6274 5.37258 24 12 24Z" fill="#F0F0F0"/>
<path d="M11.4764 12H24C24 10.9091 23.8582 9.87275 23.5855 8.86912H11.4764V12ZM11.4764 5.73821H22.2436C21.5092 4.54127 20.5715 3.48173 19.4727 2.6073H11.4764V5.73821ZM12 24C14.8255 24 17.4218 23.0182 19.4727 21.3818H4.52728C6.57819 23.0182 9.17455 24 12 24ZM1.75637 18.2618H22.2546C22.8436 17.3018 23.3018 16.2437 23.5964 15.1309H0.414551C0.709096 16.2437 1.17819 17.3018 1.75637 18.2618Z" fill="#D80027"/>
<path d="M5.56364 1.87636H6.65455L5.64 2.61818L6.02182 3.81818L5.00727 3.06545L3.99273 3.80727L4.32 2.77091C3.42545 3.52364 2.64 4.39636 1.99636 5.36727H2.34545L1.69091 5.83636L1.40727 6.34909L1.72364 7.30909L1.14545 6.88364C1.00364 7.18909 0.872727 7.49455 0.752727 7.82182L1.09091 8.86909H2.34545L1.33091 9.6L1.72364 10.8L0.698182 10.0582L0.0981818 10.4945C0.0327273 11.0073 0 11.5091 0 12H12V0C9.63273 0 7.41818 0.687273 5.56364 1.87636ZM6.02182 10.8L5.00727 10.0582L3.99273 10.8L4.36364 9.6L3.34909 8.86909H4.60364L4.99636 7.66909L5.38909 8.86909H6.65455L5.64 9.6L6.02182 10.8ZM5.64 6.10909L6.02182 7.30909L5.00727 6.56727L3.99273 7.30909L4.36364 6.10909L3.34909 5.36727H4.60364L4.99636 4.16727L5.38909 5.36727H6.65455L5.64 6.10909ZM10.3309 10.8L9.30545 10.0582L8.29091 10.8L8.68364 9.6L7.66909 8.86909H8.92364L9.30545 7.66909L9.69818 8.86909H10.9527L9.93818 9.6L10.3309 10.8ZM9.92727 6.10909L10.32 7.30909L9.29455 6.56727L8.28 7.30909L8.67273 6.10909L7.65818 5.36727H8.91273L9.29455 4.16727L9.68727 5.36727H10.9418L9.92727 6.10909ZM9.92727 2.61818L10.32 3.81818L9.29455 3.06545L8.28 3.80727L8.67273 2.60727L7.65818 1.87636H8.91273L9.29455 0.676364L9.68727 1.87636H10.9418L9.92727 2.61818Z" fill="#0052B4"/>
</svg>
