<svg fill="none" height="512" viewBox="0 0 512 512" width="512" xmlns="http://www.w3.org/2000/svg"><g clip-rule="evenodd" fill-rule="evenodd"><path d="m256 32c123.712 0 224 100.288 224 224s-100.288 224-224 224-224-100.288-224-224 100.288-224 224-224z" fill="#fbfbfb"/><path d="m468.168 184h-424.3555c29.9849-88.3912 113.6525-152 212.1775-152s182.193 63.6088 212.178 152z" fill="#32ab45"/><path d="m468.168 328c-29.985 88.391-113.653 152-212.178 152s-182.1926-63.609-212.1775-152z" fill="#1d1d1d"/><path d="m152 57.5547v396.8903c-71.3408-37.465-120-112.273-120-198.445 0-86.173 48.6592-160.9804 120-198.4453z" fill="#e92b2b"/></g></svg>